<svg xmlns="http://www.w3.org/2000/svg" viewBox="0 0 256 256" width="100%" height="100%">
  <defs>
    <linearGradient id="fm-grad" x1="0%" y1="0%" x2="100%" y2="100%">
      <stop offset="0%" stop-color="#c6f06a" />
      <stop offset="40%" stop-color="#4ade80" />
      <stop offset="100%" stop-color="#0ea5e9" />
    </linearGradient>
  </defs>

  <rect width="256" height="256" fill="url(#fm-grad)" />

  <g stroke="#ffffff" stroke-width="4.5" stroke-linecap="round" stroke-linejoin="round" opacity="0.9">
    
    <path fill="none" d="M128 44 L201 86 L201 170 L128 212 L55 170 L55 86 Z" />
    
    <path fill="none" d="M128 44 L128 128" />
    <path fill="none" d="M201 86 L128 128" />
    <path fill="none" d="M201 170 L128 128" />
    <path fill="none" d="M128 212 L128 128" />
    <path fill="none" d="M55 170 L128 128" />
    <path fill="none" d="M55 86 L128 128" />

    <g fill="#ffffff" fill-opacity="0.15">
      <circle cx="128" cy="128" r="10" />
      <circle cx="128" cy="44" r="10" />
      <circle cx="201" cy="86" r="10" />
      <circle cx="201" cy="170" r="10" />
      <circle cx="128" cy="212" r="10" />
      <circle cx="55" cy="170" r="10" />
      <circle cx="55" cy="86" r="10" />
    </g>
  </g>
</svg>
